<?xml version="1.0" standalone="no"?>
<!DOCTYPE svg PUBLIC "-//W3C//DTD SVG 1.1//EN" "http://www.w3.org/Graphics/SVG/1.1/DTD/svg11.dtd" >
<svg xmlns="http://www.w3.org/2000/svg">
<metadata>
Created by FontForge 20120731 at Tue Jul 15 13:50:45 2014
 By Ads
</metadata>
<defs>
<font id="iconfont" horiz-adv-x="1024" >
  <font-face 
    font-family="iconfont"
    font-weight="500"
    font-stretch="normal"
    units-per-em="1024"
    panose-1="2 0 6 3 0 0 0 0 0 0"
    ascent="812"
    descent="-212"
    x-height="792"
    bbox="34 -104 961.636 792"
    underline-thickness="50"
    underline-position="-100"
    unicode-range="U+0078-E62C"
  />
<missing-glyph horiz-adv-x="374" 
d="M34 0v682h272v-682h-272zM68 34h204v614h-204v-614z" />
    <glyph glyph-name=".notdef" horiz-adv-x="374" 
d="M34 0v682h272v-682h-272zM68 34h204v614h-204v-614z" />
    <glyph glyph-name=".null" horiz-adv-x="0" 
 />
    <glyph glyph-name="nonmarkingreturn" horiz-adv-x="341" 
 />
    <glyph glyph-name="x" unicode="x" horiz-adv-x="1001" 
d="M281 543q-27 -1 -53 -1h-83q-18 0 -36.5 -6t-32.5 -18.5t-23 -32t-9 -45.5v-76h912v41q0 16 -0.5 30t-0.5 18q0 13 -5 29t-17 29.5t-31.5 22.5t-49.5 9h-133v-97h-438v97zM955 310v-52q0 -23 0.5 -52t0.5 -58t-10.5 -47.5t-26 -30t-33 -16t-31.5 -4.5q-14 -1 -29.5 -0.5
t-29.5 0.5h-32l-45 128h-439l-44 -128h-29h-34q-20 0 -45 1q-25 0 -41 9.5t-25.5 23t-13.5 29.5t-4 30v167h911zM163 247q-12 0 -21 -8.5t-9 -21.5t9 -21.5t21 -8.5q13 0 22 8.5t9 21.5t-9 21.5t-22 8.5zM316 123q-8 -26 -14 -48q-5 -19 -10.5 -37t-7.5 -25t-3 -15t1 -14.5
t9.5 -10.5t21.5 -4h37h67h81h80h64h36q23 0 34 12t2 38q-5 13 -9.5 30.5t-9.5 34.5q-5 19 -11 39h-368zM336 498v228q0 11 2.5 23t10 21.5t20.5 15.5t34 6h188q31 0 51.5 -14.5t20.5 -52.5v-227h-327z" />
    <glyph glyph-name="uniE601" unicode="&#xe601;" 
d="M814 7h-604q-11 0 -18.5 7.5t-7.5 18.5q0 7 3.5 12.5t9.5 9t13 3.5h53v189q0 11 7.5 18.5t18 7.5t18 -7.5t7.5 -18.5v-189h396v189q0 11 7.5 18.5t18 7.5t18 -7.5t7.5 -18.5v-189h53q7 0 13 -3.5t9.5 -9t3.5 -12.5q0 -11 -7.5 -18.5t-18.5 -7.5zM754 308q-5 0 -10.5 0.5
t-10.5 2t-9 2.5q-1 0 -1 0.5t-1 0.5q-14 5 -24 15h-1l-2 2l-2 2q-25 -25 -60 -25q-18 0 -33.5 6.5t-27.5 18.5q-25 -25 -60 -25t-60 25q-12 -12 -28 -18.5t-33 -6.5q-35 0 -60 25q-4 -3 -7.5 -6t-6.5 -6l-9 -4v-1h-1q-4 -2 -8 -3h-1q-13 -5 -28 -5q-23 0 -43 11.5
t-31.5 31.5t-11.5 43v40q0 8 5 15l104 141q4 5 9 8t12 3h396q13 0 21 -11l104 -141q5 -7 5 -15v-40q0 -36 -25.5 -61t-60.5 -25zM723 377v-1q2 -1 2 -2h1v-1q0 -1 0.5 -1.5t1.5 -0.5l-19 -18l20 17l2 -2v-1q2 -2 5 -3l5 -3h1l3 -1q9 -2 17 0t13.5 6.5t9 12t3.5 15.5v31
l-91 125h-371l-91 -125v-31q0 -10 5 -18t13 -12.5t17 -4.5q3 0 6 0.5t6 1.5h1l2 2q2 1 4 1v1q3 2 6 4.5t5 5.5l2 4q1 3 1.5 5t1 4.5t0.5 5.5q0 7 3.5 13t9.5 9t13 3q3 0 6.5 -0.5t6.5 -2.5l4 -4q3 -2 4.5 -5t2.5 -6.5t1 -6.5q0 -10 5 -18t13 -12.5t17 -4.5q15 0 25 10t10 25
q0 5 2 10t5.5 8t8 5t10.5 2t12 -3t9.5 -9t3.5 -13q0 -15 10.5 -25t24.5 -10t24.5 10t10.5 25q0 7 3.5 13t9 9t12.5 3t13 -3t9.5 -9t3.5 -13q0 -15 10 -25t24.5 -10t25 10t10.5 25q0 7 3 13t9 9t13 3t13 -3t9.5 -9t3.5 -13q0 -4 1 -8.5t3 -8.5z" />
    <glyph glyph-name="uniE602" unicode="&#xe602;" 
d="M325 -5h-3q-2 0 -4 1q-2 0 -4.5 1.5t-4.5 3t-3.5 3.5t-2.5 4l-81 139q-5 9 -2 19.5t12 15.5t19 2.5t16 -11.5l67 -117l89 53q6 4 12 4l285 7l10 25l-238 411l-24 4l-145 -251q-2 -3 -4 -5.5t-5 -3.5l-111 -67q-6 -4 -13 -4t-13 3.5t-9 9.5q-6 9 -3.5 19t11.5 16l106 63
l150 260q4 7 11 10.5t14 2.5l55 -8q12 -2 18 -12l250 -433q2 -3 3 -7t0.5 -7.5t-1.5 -7.5l-20 -52q-3 -7 -9 -11.5t-14 -4.5l-296 -8l-105 -63q-6 -4 -13 -4zM652 348q-15 0 -22 13q-6 9 -3 19t12 16l125 72q5 2 10 3t9.5 -0.5t8.5 -4.5t7 -8q5 -9 2.5 -19t-11.5 -16
l-125 -72q-2 -1 -4.5 -1.5t-4.5 -1t-4 -0.5zM599 409q-4 0 -9 1q-9 4 -13.5 13.5t-1.5 19.5l56 153q3 7 8 11t11.5 5t13.5 -1t11 -7.5t5.5 -12t-1.5 -13.5l-56 -152q-3 -8 -9.5 -12.5t-14.5 -4.5zM681 270q-5 0 -9.5 2t-8 5t-5.5 7.5t-2 9.5q-1 5 0.5 9t3.5 7t5 5.5t7 4
t8 1.5l153 6q5 0 10 -2t8.5 -5t6 -7.5t2.5 -10.5q0 -10 -7 -18t-18 -8l-153 -6h-1z" />
    <glyph glyph-name="uniE604" unicode="&#xe604;" 
d="M807 499h-590q-14 0 -23.5 9.5t-9.5 23.5t9.5 23.5t23.5 9.5h590q14 0 23.5 -9.5t9.5 -23.5q0 -9 -4.5 -17t-12 -12t-16.5 -4zM722 -42h-420q-9 0 -16.5 4.5t-12 12t-4.5 16.5v447q0 14 9.5 24t23.5 10q7 0 13 -3t10.5 -7.5t7 -10.5t2.5 -13v-414h354v414q0 14 9.5 24
t23.5 10q9 0 16.5 -4.5t12 -12.5t4.5 -17v-447q0 -4 -1 -8.5t-3.5 -8t-5.5 -6.5t-6.5 -5.5t-8 -3.5t-8.5 -1zM591 506h-158q-7 0 -13 3.5t-9 9.5t-3 13v92q0 7 3 13t9 9.5t13 3.5h158q10 0 17.5 -7.5t7.5 -18.5v-92q0 -7 -3.5 -13t-9 -9.5t-12.5 -3.5zM459 557h106v42h-106
v-42zM413.5 66q-10.5 0 -18 7.5t-7.5 18.5v323q0 10 7.5 17.5t18.5 7.5q5 0 10 -2t8 -5.5t5 -8t2 -9.5v-323q0 -11 -7.5 -18.5t-18 -7.5zM512 66q-11 0 -18.5 7.5t-7.5 18.5v323q0 10 7.5 17.5t18.5 7.5q5 0 10 -2t8 -5.5t5 -8t2 -9.5v-323q0 -11 -7 -18.5t-18 -7.5zM610 66
q-11 0 -18.5 7.5t-7.5 18.5v323q0 10 7.5 17.5t18.5 7.5q5 0 10 -2t8 -5.5t5.5 -8t2.5 -9.5v-323q0 -11 -7.5 -18.5t-18.5 -7.5z" />
    <glyph glyph-name="uniE605" unicode="&#xe605;" 
d="M704 -25q-8 0 -16 4l-176 93l-177 -93q-18 -9 -34.5 3t-13.5 32l34 197l-143 139q-14 14 -8 34q2 6 6 10.5t9 8t12 3.5l197 29l88 179q9 18 30 18q6 0 12 -2t10.5 -6t7.5 -10l88 -179l197 -29q3 0 5 -1l6 -2q2 -1 4 -2.5t4 -3.5t3.5 -4t2.5 -4.5t2 -4.5q3 -9 0.5 -18.5
t-8.5 -15.5l-143 -139l34 -197q3 -20 -14 -32q-2 -2 -4.5 -3t-4.5 -2t-5 -1.5t-5 -0.5zM512 143q9 -1 15 -4l133 -70l-26 148q0 5 0.5 10.5t3 10t6.5 8.5l107 104l-148 22q-8 1 -14.5 6t-10.5 12l-66 134l-66 -134q-8 -16 -25 -18l-148 -22l107 -104q6 -6 8.5 -13.5
t0.5 -15.5l-25 -148l133 70q7 4 15 4z" />
    <glyph glyph-name="uniE606" unicode="&#xe606;" 
d="M203 -48q-3 0 -6 0.5t-5.5 1t-5 2t-4.5 3.5q-13 10 -13 26v582q0 6 2 11t5 9.5t7.5 7.5t10.5 5l206 55h1l3 1h3h2h1h2q3 0 4 -1h1l198 -53l198 53q4 1 8 1q6 0 11 -1.5t10 -5.5q13 -10 13 -26v-582q0 -12 -7 -21t-18 -12l-206 -55h-2q-1 -1 -3 -1h-3h-1h-1q-3 0 -6 1h-2
l-197 53l-198 -53q-4 -1 -8 -1zM649 29l139 37v513l-139 -37v-513zM581 29v513l-139 37v-513zM236 29l139 37v513l-139 -37v-513z" />
    <glyph glyph-name="uniE607" unicode="&#xe607;" 
d="M753 614h-482q-61 0 -104.5 -43.5t-43.5 -104.5v-235q0 -61 43.5 -104t104.5 -43h135l78 -78q12 -12 28 -12t28 12l78 78h135q61 0 104.5 43t43.5 104v235q0 24 -7.5 46.5t-21.5 41t-32 32t-40.5 21t-46.5 7.5zM330 290q-8 0 -15.5 2t-14 5.5t-12 9t-9 12t-6 14
t-2.5 15.5q0 25 17.5 42t41.5 17q8 0 15.5 -2t14 -6t12 -9.5t9 -12t6 -14t2.5 -15.5q0 -24 -17.5 -41t-41.5 -17zM517 290q-16 0 -29.5 7.5t-21.5 21t-8 29.5q0 25 17.5 42t41.5 17t41.5 -17t17.5 -41.5t-17.5 -41.5t-41.5 -17zM704 290q-16 0 -29.5 7.5t-21.5 21t-8 29.5
q0 25 17.5 42t41.5 17q16 0 29.5 -8t21.5 -21.5t8 -29.5t-8 -29.5t-21.5 -21t-29.5 -7.5z" />
    <glyph glyph-name="uniE608" unicode="&#xe608;" 
d="M468.5 77q-111.5 0 -190.5 79t-79 191q0 37 10 71.5t27 64.5t42 54.5t54.5 42t64.5 27.5t72 10q111 0 190.5 -79.5t79.5 -191t-79.5 -190.5t-191 -79zM469 550q-84 0 -143.5 -59.5t-59.5 -143.5q0 -55 27 -102t74 -74t102 -27q84 0 143.5 59.5t59.5 143.5q0 17 -2.5 33
t-7.5 31t-12.5 29t-16.5 26.5t-20.5 24t-24 20.5t-26.5 16.5t-29 12.5t-31 7.5t-33 2.5zM784 -9q-17 0 -29 12l-141 141q-12 12 -12 29t12 29t29 12t29 -12l141 -141q12 -12 12 -29t-12 -29t-29 -12z" />
    <glyph glyph-name="uniE60A" unicode="&#xe60a;" 
d="M693 -51h-63q-13 0 -22 9t-9 22v135q0 13 9 22l79 79q9 9 22 9h103v307q0 27 -19 46.5t-47 19.5h-469q-17 0 -32.5 -9t-24 -24t-8.5 -33v-456q0 -27 19 -46.5t46 -19.5h214q12 0 21 -9t9 -21.5t-9 -21.5t-21 -9h-214q-52 0 -89.5 37.5t-37.5 89.5v456q0 26 10.5 49.5
t27.5 40.5t40.5 27t48.5 10h469q35 0 64 -17t46.5 -46.5t17.5 -63.5v-401q0 -6 -2.5 -11.5t-6.5 -10.5l-151 -151q-9 -9 -21 -9zM661 10h19l132 134v19h-90l-61 -61v-92zM709 426h-389q-12 0 -21 9t-9 22q0 8 4 15t11 11t15 4h389q8 0 15 -4t11.5 -11t4.5 -15
q0 -7 -2.5 -12.5t-7 -9.5t-10 -6.5t-11.5 -2.5zM709 281h-389q-4 0 -8 1.5t-7.5 3t-6 4.5t-4.5 6.5t-3 7.5t-1 8q0 13 9 22t21 9h389q3 0 6.5 -1t6.5 -2.5t6 -3.5t5 -5t3.5 -6t2.5 -6t1 -7q0 -13 -9 -22t-22 -9zM481 137h-161q-12 0 -21 9t-9 21.5t9 21.5t21 9h161
q12 0 21 -9t9 -22q0 -8 -4 -15t-11 -11t-15 -4z" />
    <glyph glyph-name="uniE60B" unicode="&#xe60b;" 
d="M390 540v-114h-114v114h114zM415 619h-164q-22 0 -38 -16t-16 -38v-164q0 -22 16 -38t38 -16h164q22 0 38 16t16 38v164q0 22 -16 38t-38 16zM748 540v-114h-114v114h114zM773 619h-164q-14 0 -26.5 -7.5t-20 -20t-7.5 -26.5v-164q0 -22 16 -38t38 -16h164q22 0 38 16
t16 38v164q0 22 -16 38t-38 16zM390 182v-114h-114v114h114zM415 261h-164q-22 0 -38 -16t-16 -39v-163q0 -14 7.5 -27t20 -20t26.5 -7h164q22 0 38 16t16 38v163q0 15 -7.5 27.5t-20 20t-26.5 7.5zM748 182v-114h-114v114h114zM773 261h-164q-22 0 -38 -16t-16 -39v-163
q0 -22 16 -38t38 -16h164q22 0 38 16t16 38v163q0 23 -16 39t-38 16z" />
    <glyph glyph-name="uniE60C" unicode="&#xe60c;" 
d="M511 229q-78 0 -133.5 55t-55.5 133.5t55.5 133.5t133.5 55q51 0 94.5 -25t68.5 -68.5t25 -94.5q0 -79 -55 -134t-133 -55zM814 2h-604q-17 0 -24 15t4 28q23 27 48 50.5t46 39.5t42.5 29t37 20.5t29.5 13t19.5 7t8.5 2.5q4 1 8.5 0.5t8.5 -2t7 -4.5l66 -60l61 59
q11 11 26 7q27 -7 52 -17.5t45 -21t38.5 -23.5t32 -24t25.5 -23.5t19.5 -21t14 -17.5t9 -12t3.5 -6q8 -13 0 -26t-23 -13z" />
    <glyph glyph-name="uniE60D" unicode="&#xe60d;" 
d="M611 612q-86 0 -147.5 -61t-61.5 -148q0 -52 25 -98l-102 -102l-36 37q-2 2 -5.5 3.5t-6.5 2t-6.5 0t-7 -2t-5.5 -3.5l-47 -48q-7 -6 -7 -15t7 -16l36 -36l-32 -32q-5 -5 -6.5 -11.5t0 -13t6.5 -11.5l54 -54q7 -7 17.5 -7t18.5 7l213 213q10 -5 21.5 -9t23 -7t24 -4.5
t24.5 -1.5q87 0 148 61.5t61 147.5q0 43 -16.5 81.5t-44.5 66.5t-66.5 44.5t-81.5 16.5zM611 318q-35 0 -60 25t-25 60q0 17 6.5 33t18 27.5t27.5 18t33 6.5q35 0 60 -25t25 -60t-25 -60t-60 -25z" />
    <glyph glyph-name="uniE60E" unicode="&#xe60e;" 
d="M647 656h-270q-26 0 -48 -13t-35 -35t-13 -48v-512q0 -40 28 -68t68 -28h270q20 0 37.5 7.5t30.5 20.5t20.5 31t7.5 37v512q0 40 -28 68t-68 28zM547 11h-70v70h70v-70zM687 130h-350v436h350v-436z" />
    <glyph glyph-name="uniE60F" unicode="&#xe60f;" 
d="M741 125zM672 125q0 41 36 60q16 8 33 9q18 0 33.5 -9.5t25 -25t9.5 -34.5q0 -28 -20 -48t-48 -20q-19 0 -34.5 9.5t-25 25t-9.5 33.5zM351 125zM282 125.5q0 28.5 20 48.5t48.5 20t48.5 -20t20 -49q0 -40 -36 -60q-16 -7 -32 -8q-29 0 -49 20t-20 48.5zM542 551h-383
q-15 0 -25.5 -11t-10.5 -26v-338q0 -15 10.5 -25.5t25.5 -10.5h89q3 25 17.5 45.5t37 32.5t48.5 12q39 0 68 -26t34 -64h89q10 0 18 4.5t13 13t5 18.5v338q0 15 -10.5 26t-25.5 11zM885 366q-5 8 -12 18t-15 20.5t-16.5 21.5t-16 20.5t-13 16.5t-8.5 11l-4 5q-13 12 -26 12
h-136q-13 0 -22 -9t-9 -22v-289q0 -13 9 -22t22 -9q5 38 34 64t68.5 26t68.5 -26t34 -64h27q13 0 22 9t9 22v150q0 21 -16 45zM670 310v123h105q55 -68 67 -91q5 -11 7 -19t1 -10l-1 -3h-179z" />
    <glyph glyph-name="uniE610" unicode="&#xe610;" 
d="M707 8h-390q-29 0 -53.5 14t-39 39t-14.5 54q0 7 3.5 12.5t9.5 9t13 3.5q10 0 17.5 -7.5t7.5 -17.5q0 -16 7.5 -28.5t20.5 -20t28 -7.5h390q23 0 39.5 16.5t16.5 39.5v188l-79 -103q-7 -9 -19 -9.5t-20 7.5l-74 75l-78 -92q-4 -5 -9.5 -7.5t-11.5 -2.5q-13 1 -20 12
l-95 146l-102 -117q-12 -14 -28 -7q-8 2 -12.5 8.5t-4.5 14.5v265q0 44 31.5 75.5t75.5 31.5h390q29 0 53.5 -14t39 -39t14.5 -54q0 -7 -3.5 -12.5t-9.5 -9t-13 -3.5t-12.5 3.5t-9 9t-3.5 12.5q0 23 -16.5 39.5t-39.5 16.5h-390q-15 0 -28 -7.5t-20.5 -20.5t-7.5 -28v-196
l80 92q3 4 9 6.5t12 1.5q12 -1 19 -11l95 -146l73 87q3 3 6 5t6 3t7 1q5 0 10 -2t9 -5l74 -74l107 139q11 14 28.5 8t17.5 -24v-263q0 -58 -49 -90q-27 -17 -58 -17zM413 371.5q0 -22.5 -15.5 -38t-37.5 -15.5t-38 15.5t-16 37.5q0 11 4.5 21t11.5 17t17 11.5t21 4.5
q22 0 37.5 -15.5t15.5 -38zM622 310q0 -22 -15.5 -38t-37.5 -16t-38 16t-16 38t16 37.5t38 15.5q15 0 27 -7t19 -19.5t7 -26.5zM527 197q0 -14 -7 -26.5t-19.5 -19.5t-26.5 -7q-11 0 -21 4t-17 11.5t-11.5 17t-4.5 20.5q0 15 7.5 27t19.5 19.5t27 7.5q22 0 37.5 -16
t15.5 -38zM718 215q0 -22 -16 -37.5t-38 -15.5t-37.5 15.5t-15.5 37.5q0 9 2.5 17t7.5 15t11.5 11.5t14.5 7.5t17 3q15 0 27 -7t19.5 -19.5t7.5 -27.5z" />
    <glyph glyph-name="uniE611" unicode="&#xe611;" 
d="M532 -49h-55q-5 0 -9.5 2t-8.5 5l-262 263q-8 7 -8 18q0 5 2 9.5t6 8.5l309 309q9 9 21 8l258 -33q9 -1 15 -7t7 -15l32 -258q1 -3 0.5 -7t-2.5 -7.5t-5 -6.5l-282 -282q-2 -2 -5 -3.5t-6 -2.5t-7 -1zM488 2h34l265 266l-28 225l-226 28l-282 -282zM210 322q-3 0 -5 0.5
t-4.5 1.5t-4.5 2.5t-4 3.5q-8 7 -8 17.5t8 18.5l283 283q9 9 21 8l238 -33q11 -1 17 -9.5t5 -19t-9.5 -17t-19.5 -4.5l-225 30l-274 -274q-8 -8 -18 -8zM649 317q-28 0 -47 19t-19 47q0 13 5 25t14 21.5t21 14.5t26 5q27 0 46.5 -19.5t19.5 -47t-20 -46.5q-6 -6 -13.5 -10.5
t-16 -6.5t-16.5 -2zM648.5 408q-10.5 0 -17.5 -7q-3 -3 -4.5 -5.5t-2.5 -6t-1 -6.5t1 -6.5t2.5 -6.5t4.5 -5q7 -7 17.5 -7t17.5 7q8 7 8 17.5t-7.5 18t-18 7.5z" />
    <glyph glyph-name="uniE612" unicode="&#xe612;" 
d="M230 119l-72 93l354 277l354 -277l-72 -93l-282 221z" />
    <glyph glyph-name="uniE613" unicode="&#xe613;" 
d="M365.5 28q-16.5 0 -28 11.5t-11.5 28.5v472q0 16 11.5 28t27.5 12q11 0 20 -5.5t14.5 -14.5t5.5 -20v-472q0 -17 -11.5 -28.5t-28 -11.5zM659 28q-17 0 -28.5 11.5t-11.5 28.5v472q0 16 11.5 28t28.5 12q10 0 19.5 -5.5t14.5 -14.5t5 -20v-472q0 -27 -25 -37
q-8 -3 -14 -3zM659 28q-17 0 -28 12l-118 118q-12 11 -12 27.5t11.5 28t28 11.5t27.5 -11l91 -91l90 91q11 11 27.5 11t28 -11.5t11.5 -28t-11 -27.5l-118 -118q-4 -4 -8.5 -6.5t-9.5 -4t-10 -1.5zM483.5 383q-16.5 0 -27.5 11l-91 90l-90 -90q-6 -5 -13 -8t-14.5 -3t-15 3
t-13.5 8q-11 12 -11 28t11 28l118 118q12 12 28.5 12t27.5 -12l118 -118q6 -6 9 -13.5t3 -14.5t-3 -14.5t-9 -13.5q-11 -11 -27.5 -11z" />
    <glyph glyph-name="uniE614" unicode="&#xe614;" 
d="M804 -104h-208q-13 0 -22 9t-9 22v189h-107v-189q0 -13 -9 -22t-22 -9h-202q-9 0 -16 4t-11 11t-4 16v417q0 13 9 22t22 9h622l-321 267l-414 -322q-10 -7 -23 -5.5t-20.5 11.5t-6 22.5t11.5 20.5l434 336q20 15 39 0l404 -337q7 -6 9.5 -15.5t-0.5 -18.5q-8 -20 -29 -20
h-676v-357h142v190q0 8 4 15t11 11t15 4h169q6 0 11.5 -2t9.5 -6.5t6.5 -10t2.5 -11.5v-190h148v287q0 13 9 22t21 9q7 0 12.5 -2.5t9.5 -6.5t6.5 -9.5t2.5 -12.5v-317q0 -23 -21 -29q-5 -2 -10 -2z" />
    <glyph glyph-name="uniE615" unicode="&#xe615;" 
d="M900 198l-125 172q-6 8 -15 8q-3 0 -6 -1t-5.5 -2.5t-4.5 -4.5l-125 -172q-2 -2 -2.5 -5.5t-0.5 -7t2 -6.5q5 -10 17 -10h69q-24 -40 -58 -69q-41 -34 -91 -50t-103 -12q-110 10 -181 94.5t-62 194.5t93.5 181t194.5 61q108 -9 179 -91q7 -8 18 -12t22.5 -2t20.5 10
q14 12 15 30t-10 32q-95 108 -238 120q-146 13 -258 -82q-54 -45 -86 -107t-38 -133q-12 -146 82 -258q30 -36 68 -62.5t81.5 -42.5t90.5 -19q16 -2 31 -2q129 0 227 83q67 56 99 136h84q11 0 16 10q2 3 2.5 6.5t-0.5 7t-3 5.5z" />
    <glyph glyph-name="uniE616" unicode="&#xe616;" 
d="M516 145l-356 241l52 77l303 -205l296 205l53 -77z" />
    <glyph glyph-name="uniE617" unicode="&#xe617;" 
d="M353 300l241 356l77 -52l-205 -303l205 -296l-77 -53z" />
    <glyph glyph-name="uniE618" unicode="&#xe618;" 
d="M512 -50q-6 0 -12 1.5t-11 5.5q-13 9 -32.5 24.5t-65 59.5t-80 89.5t-62 110.5t-27.5 127q0 120 85 205t205 85t205 -85t85 -205q0 -60 -27.5 -124.5t-62 -110t-79.5 -90.5t-65 -60.5t-33 -25.5q-3 -2 -7 -4t-8 -2.5t-8 -0.5zM512 580q-57 0 -106 -28.5t-77 -77
t-28 -106.5q0 -35 11 -71.5t30.5 -68.5t41 -61t47.5 -54.5t44 -42.5t37 -31q22 18 44.5 39t54.5 56.5t55.5 70.5t40 79t16.5 84q0 43 -16.5 82t-45 67.5t-67.5 45.5t-82 17zM622 359q0 -30 -14.5 -55.5t-40 -40t-55.5 -14.5q-18 0 -35 5.5t-30.5 15.5t-23.5 23.5t-15.5 30.5
t-5.5 35q0 46 32 78t78 32t78 -32t32 -78z" />
    <glyph glyph-name="uniE61C" unicode="&#xe61c;" 
d="M183 344l-30 -144v-4q0 -3 5 -7t15 -4q11 0 16.5 4t5.5 7v4l13 144q1 15 -12 15q-7 0 -10 -3.5t-3 -7.5v-4zM311 306l-11 -73v-1v-3q0 -2 0.5 -4t1.5 -4.5t3 -5t4.5 -4.5t6 -4t9 -3t11.5 -1q10 0 19.5 0.5t15 1t10 1t5.5 0.5l2 1q1 0 2.5 0.5t5.5 5.5t7 14q4 15 -4 16
l-56 -8l-4 2q-4 7 -4 26l-1 41q1 18 -10 19q-4 0 -7.5 -4t-4.5 -9zM385 399zM364 399q0 9 6 15.5t15 6.5t15.5 -6.5t6.5 -15.5q0 -6 -3 -11t-8 -8t-11 -3q-4 0 -8 2t-7 5t-4.5 7t-1.5 8zM197 415l-76 -127q1 0 -0.5 -2.5t4 -6t17 -5.5t20 1.5t11.5 7.5l2 5l56 127
q0 2 0.5 4.5t-1.5 7.5t-9 5q-16 0 -24 -17zM289 426l-58 -212q-1 -1 -1 -3t-0.5 -6t1 -7.5t5.5 -7t11 -4.5t12.5 0.5t8 3.5t4.5 4.5t2 4.5l1 2l38 213q7 26 -7 28q-6 1 -10 -3t-5 -8zM371 367l-141 -5q-2 0 -4.5 -1t-5.5 -6.5t-2 -13.5q1 -5 3.5 -9t5 -6t5 -2.5t4.5 -0.5h1
l138 20l11 3q3 5 3 9q-1 5 -5.5 8t-8.5 4h-4zM450 428l-13 -36l-2 -15q2 -19 29 -22h3q11 0 30 0.5t38 2t36.5 2.5t28.5 2l11 1q14 2 17 14q3 8 -10 11l-7 1l-123 -2q-2 0 -5.5 0.5t-8 5t-3.5 13.5l1 24q0 1 -1 2t-3 3.5t-4 2.5q-9 1 -14 -10zM587 326l-137 -1l-5 -3
q-3 -1 -7 -7.5t-3 -14.5q1 -4 2.5 -6t4 -3t4.5 -1.5t4 -0.5h1l143 11q2 1 5 2t7 4.5t4 8.5q-1 6 -7 8.5t-11 2.5h-5zM602 254l-168 -7q-3 0 -6.5 -2t-9 -8.5t-3.5 -15.5q1 -5 5.5 -7.5t9.5 -2.5h4l175 18q3 0 6.5 1t9 5t4.5 9q-1 6 -7.5 8.5t-13.5 1.5h-6zM525 408l-29 -167
q-1 -2 -1 -5.5t4.5 -9t15.5 -5.5q12 0 18 4t6 8l1 4l8 158q8 27 -6 30q-8 2 -12 -2.5t-4 -9.5zM694 406zM667 406q0 8 3.5 14t10 9.5t13.5 3.5q5 0 10 -2.5t8.5 -6t5.5 -8t2 -10.5q0 -7 -3.5 -13t-9.5 -9.5t-13 -3.5q-6 0 -10.5 2t-8 5.5t-6 8.5t-2.5 10zM876 369l-136 -7
q-2 -1 -5.5 -2.5t-9 -8t-3.5 -15.5q2 -11 19 -11l142 19q3 0 6.5 1t9 5t4.5 9q0 4 -3 6t-7 3t-8 1h-6h-3zM856 443l-99 -14q-1 0 -1.5 -0.5t-3 -1.5t-4.5 -2.5t-4.5 -3.5t-3.5 -4.5t-2 -6t0 -7.5q1 -5 5.5 -8t9.5 -3h4l106 26q3 0 6.5 1t9 5t4.5 9q0 3 -2 5t-4 3t-5 1.5
t-6 0.5h-5h-4h-1zM802 408l-15 -109v-11q4 -9 18 -9q13 0 19 4t6 8v4l-5 100q1 3 1 7.5t-2.5 12.5t-8.5 9q-7 2 -10.5 -2t-2.5 -9v-5zM671 363l13 -10q7 -6 17 -22.5t5 -31.5q-3 -10 -9 -20.5t-9.5 -15t-5 -13t5.5 -14.5q3 -6 4.5 -11.5t0 -9.5t-6 -7.5t-10.5 -4.5
q-8 -1 -16.5 5.5t-12.5 14.5q-1 4 -6 12t-7.5 13t-1 14t10.5 17q18 20 23 34.5t-6 24.5q-15 10 -10 23q4 13 21 2zM747 277q0 14 13 17q7 2 12 1.5t7.5 -2.5t2.5 -6q0 -8 1 -90q1 -4 6 -5l95 7q2 -1 4 -2.5t5 -6.5t-1 -9q-5 -7 -63 -13t-67.5 -2.5t-15 9.5t-5.5 16
q1 5 1.5 15.5t1.5 22t1.5 23t1.5 18.5v7zM873 193q-3 -2 -15 -2q-5 -1 -9 -1t-7 0.5t-5 2.5t-2 5t1.5 20t2.5 32l1 16q-2 14 -6 15q-2 0 -11 -0.5t-17 -0.5l-8 -1q-1 0 -2 1t-3 2.5t-3.5 3.5t-1.5 5t2 6q4 5 18.5 6.5t29 0.5t20.5 -3q21 -7 20 -25z" />
    <glyph glyph-name="uniE61D" unicode="&#xe61d;" 
d="M698 258q-22 0 -43.5 -6t-39 -17.5t-32 -27t-24.5 -34.5q-39 20 -73 48.5t-60 63.5t-43 76q17 6 32.5 17t27.5 24.5t20.5 29.5t13.5 34.5t5 37.5q0 42 -21 77.5t-57 56t-78 20.5q-28 0 -53.5 -9.5t-45.5 -25.5t-34 -38.5t-20 -48.5q0 -2 -0.5 -4.5t-1.5 -9t-1 -9.5v-9v-9
q2 -138 68 -257t179 -194.5t249 -90.5q16 -3 32 -3q23 0 37 4t17 8l3 4l2 3q6 11 3 23t-14 19l-2 1q-18 11 -34 -1h-12q-3 0 -6 0.5t-6.5 1t-6.5 1t-6 1.5q-63 7 -118 28v-1h1q-67 25 -123 66.5t-99 97t-68 120.5q-31 72 -32 166l-1 10q0 38 27.5 65t66 27t66 -27t27.5 -65
q0 -34 -22.5 -60t-56.5 -31q-28 -2 -28 -31v-2q0 -14 11 -24q30 -79 87 -142.5t132 -98.5v-1v0q13 -4 17 -7l3 -1q11 -7 23.5 -4t18.5 14q5 8 5 17q9 28 33.5 46.5t55.5 18.5q19 0 36 -7.5t29.5 -20t20 -29.5t7.5 -36l-4 -30l-1 -2q-2 -4 -3 -8.5t-1 -8.5t2 -8.5t5 -8
t7 -5.5l2 -1q16 -10 32 1q3 0 7.5 8t7.5 18.5t5.5 23t2.5 22.5q0 76 -60 122q-43 32 -96 32z" />
    <glyph glyph-name="uniE61E" unicode="&#xe61e;" 
d="M779 -36h-461q-10 0 -18 8t-8 18.5t8 18.5t18 8h431l-43 407h-396l-39 -356q-1 -11 -9.5 -17.5t-19 -5.5t-17.5 9.5t-6 19.5l41 379q1 10 8.5 16.5t17.5 6.5h443q10 0 17.5 -6.5t8.5 -16.5l50 -460q0 -5 -1.5 -10.5t-5.5 -9.5q-8 -9 -19 -9zM612 343zM577 343.5
q0 14.5 10.5 24.5t24.5 10t24.5 -10t10.5 -24.5t-10.5 -25t-24.5 -10.5t-24.5 10.5t-10.5 25zM402 343zM367 343q0 15 10 25t25 10q9 0 17 -4.5t12.5 -12.5t4.5 -18q0 -14 -10 -24.5t-24 -10.5q-10 0 -18 5t-12.5 13t-4.5 17zM612 317q-4 0 -8 1.5t-7.5 4t-6 5.5t-3.5 7
t-1 8v169q0 33 -23.5 56t-56 23t-55.5 -23t-23 -56v-169q0 -11 -8 -18.5t-18 -7.5q-5 0 -9 1.5t-7 4t-5.5 5.5t-4 7t-1.5 8v169q0 54 38.5 92.5t93.5 38.5q26 0 50.5 -10t42 -28t28 -42t10.5 -51v-169q0 -11 -7.5 -18.5t-18.5 -7.5z" />
    <glyph glyph-name="uniE61F" unicode="&#xe61f;" 
d="M791 -51h-485q-10 0 -18 8t-8 18.5t8 18.5t18 8h459v439h-506v-392q0 -11 -7.5 -18.5t-18.5 -7.5t-18.5 7.5t-7.5 18.5v418q0 11 7.5 19t18.5 8h558q11 0 18.5 -8t7.5 -19v-491q0 -4 -1 -7.5t-2.5 -6t-4 -5t-5.5 -4.5t-6.5 -3t-6.5 -1zM512 441q-14 0 -22 11q-11 17 1 32
l133 165q8 9 20 9q13 1 21 -9l77 -94q8 -10 5 -24q-2 -6 -6.5 -10.5t-10.5 -6.5l-210 -71zM645 591l-57 -70l89 30zM511.5 441q-5.5 0 -10.5 3l-205 92q-14 6 -15.5 20.5t9.5 23.5l94 73q5 3 10 4.5t10 0.5q12 -2 18 -11l111 -165q11 -16 -1 -31q-4 -5 -9.5 -7.5t-11 -2.5z
M357 565l82 -36l-45 66zM512 -51q-4 0 -7 1t-6 3t-5.5 4.5t-4 5t-2.5 6t-1 7.5v494q0 11 7.5 18.5t18.5 7.5t18.5 -7.5t7.5 -18.5v-494q0 -3 -0.5 -6t-1.5 -6l-4 -4q-1 -3 -3.5 -5t-5 -3t-5.5 -2t-6 -1zM791 197h-558q-7 0 -13 3.5t-9.5 9.5t-3.5 13q0 11 7.5 18.5t18.5 7.5
h558q11 0 18.5 -7.5t7.5 -18.5q0 -4 -1.5 -8t-4 -7.5t-5.5 -6t-7 -3.5t-8 -1z" />
    <glyph glyph-name="uniE620" unicode="&#xe620;" 
d="M420 -50l-93 72l221 282l-221 282l93 72l277 -354z" />
    <glyph glyph-name="uniE621" unicode="&#xe621;" 
d="M455 406q4 0 8.5 2t8 4.5t5.5 6.5t3 8h2h6q48 0 82 34t34 82t-34 82t-82 34t-82 -34t-34 -82q0 -25 9.5 -47t27.5 -38h-31q-53 0 -90.5 -37.5t-37.5 -90.5v-261q0 -11 7.5 -18.5t18 -7.5t18 7.5t7.5 18.5v261q0 15 6 29.5t16.5 24.5t24.5 16t30 6h77zM488 607q10 0 20 -3
t17.5 -9t13.5 -14t9.5 -18t3.5 -20q0 -8 -1.5 -15t-5 -13.5t-8 -12t-10 -10t-12 -7.5t-13.5 -5t-14 -2q-27 0 -46 19t-19 46q0 17 8.5 32t23.5 23.5t33 8.5zM772 211q-2 5 -5.5 8.5t-8 5.5t-9.5 2h-108l-54 98q-8 14 -24 14q-2 -1 -5 -1.5t-5.5 -2t-4.5 -3t-4 -4t-3 -5.5
l-51 -111q-5 -10 -1 -20t13.5 -14.5t19.5 -0.5t15 13l30 65l36 -66q8 -14 23 -14h64l-50 -54q-9 -9 -7 -21l12 -71l-60 32q-6 3 -13 3t-13 -3l-61 -37l9 69q2 13 -8 22l-78 74q-2 3 -5 4.5t-5.5 2t-5.5 1t-5.5 0t-5.5 -1.5t-5.5 -2.5t-4.5 -4.5q-7 -7 -6.5 -18t7.5 -18
l69 -65l-15 -108q-2 -16 11 -26q7 -4 14 -4q4 0 7.5 1t6.5 3l95 56l94 -51q2 -1 5 -2t6 -1t5.5 0.5t5 1.5t5.5 3q13 9 10 25l-18 111l81 88q12 12 5 27z" />
    <glyph glyph-name="uniE622" unicode="&#xe622;" 
d="M512 156q-61 0 -104.5 43.5t-43.5 104.5t43.5 104.5t104.5 43.5t104.5 -43.5t43.5 -104.5q0 -40 -20 -74t-54 -54t-74 -20zM512 385q-34 0 -57.5 -23.5t-23.5 -57.5q0 -17 6.5 -32t17 -25.5t25.5 -17t32 -6.5q34 0 57.5 23.5t23.5 57.5t-23.5 57.5t-57.5 23.5zM462 -48
q-9 0 -17.5 5t-12.5 14l-31 64q-20 8 -39 19l-66 -16q-21 -5 -34 12l-62 78q-13 16 -4 35l31 64q-5 19 -8 39l-54 42q-17 13 -12 34l22 97q5 21 25 25l70 15q3 5 6 8.5t6 7.5t6 7.5t7 7.5l-2 68q0 22 19 31l89 44q9 4 18.5 3t17.5 -7l55 -45q22 2 42 0l53 43q5 4 11 6
t12.5 1.5t12.5 -2.5l90 -43q19 -9 19 -31l-1 -71q7 -7 13 -14.5t11 -15.5l67 -14q21 -5 26 -25l23 -97q1 -4 1 -7.5t-1 -7.5t-2.5 -7t-4 -6t-5.5 -6l-55 -44q-3 -19 -9 -38l31 -60q10 -19 -3 -36l-60 -79q-13 -17 -34 -12l-69 15q-19 -11 -40 -19l-28 -62q-4 -9 -12 -14
t-18 -5l-99 -1h-1zM368 123q5 0 9.5 -1.5t8.5 -4.5q12 -7 24.5 -13.5t26.5 -10.5q13 -5 19 -17l27 -57h57l26 56q6 13 19 17q27 9 51 25q11 7 25 4l62 -13l35 45l-28 54q-7 13 -2 26q8 25 11 51q2 14 13 23l49 39l-13 56l-60 12q-14 3 -21 15q-14 23 -33 42q-10 9 -10 23
l1 64l-52 24l-47 -38q-11 -9 -25 -8q-28 4 -55 1q-7 -1 -13.5 1t-11.5 6l-49 40l-52 -26l1 -61q1 -14 -10 -24q-9 -9 -17.5 -19.5t-15.5 -21.5q-7 -12 -21 -15l-62 -13l-12 -56l48 -38q3 -2 6 -6t4.5 -8t1.5 -9q2 -13 4.5 -26t7.5 -26q2 -6 1.5 -13t-3.5 -13l-28 -56l36 -45
l59 14z" />
    <glyph glyph-name="uniE623" unicode="&#xe623;" 
d="M512 658l115 -233l257 -38l-186 -181l44 -256l-230 121l-230 -121l44 256l-186 181l257 38z" />
    <glyph glyph-name="uniE625" unicode="&#xe625;" 
d="M676 158q-19 0 -36 -9l-157 117l2 12q1 6 1 12t-1 12.5t-2.5 12t-4.5 11.5l167 164q5 -2 10 -3.5t10 -2.5t11 -1q10 0 20 3t18.5 8t15.5 12t12 15.5t7.5 18.5t2.5 20q0 21 -10 38.5t-28 28t-38 10.5q-8 0 -15.5 -2t-14.5 -4.5t-13 -7t-11.5 -9.5t-9.5 -11t-7 -13
t-4.5 -14.5t-1.5 -15.5q0 -10 3 -20l-170 -167q-6 3 -12 4.5t-12.5 2.5t-13.5 1q-38 0 -64.5 -26.5t-26.5 -64.5q0 -25 12 -46t33 -33.5t46 -12.5q9 0 17.5 2t16.5 5t15 7l157 -116q-1 -7 -1 -15q0 -20 10 -38t28 -28t39 -10q12 0 23.5 3.5t21 11t16.5 16.5t11 21t4 24
q0 32 -22.5 54.5t-53.5 22.5z" />
    <glyph glyph-name="uniE628" unicode="&#xe628;" 
d="M527 662q-96 0 -177 -47t-128.5 -128.5t-47.5 -177.5t47.5 -177.5t128.5 -129t177 -47.5t177.5 47.5t129 129t47.5 177.5q0 41 -9.5 80.5t-26.5 74.5t-41.5 65.5t-55 55t-65.5 42t-74.5 26.5t-81.5 9zM542 113q-8 -7 -17.5 -10.5t-20.5 -3.5q-22 0 -38 14q-15 15 -15 36
q0 20 15 35q16 15 38 15t38 -15q16 -14 16 -35q0 -3 -0.5 -6t-1 -5.5t-1.5 -5.5t-2 -5.5t-3 -4.5t-4 -4.5t-4 -4.5zM631 350q-7 -13 -18.5 -26.5t-28.5 -27.5q-13 -11 -20.5 -18.5t-9.5 -11.5q-6 -10 -6 -23v-12h-88v18q0 30 11 51q5 11 14 21.5t21 20.5q24 21 32 33
q7 11 7 23q0 13 -9 21t-29 8q-41 0 -78 -32l-19 -18v111l6 4q46 26 99 26q30 0 54 -7t41 -22t26 -35t9 -45q0 -11 -1.5 -21t-4.5 -19.5t-8 -18.5z" />
    <glyph glyph-name="uniE629" unicode="&#xe629;" 
d="M527 661q-71 0 -136.5 -28t-112.5 -75t-75 -112.5t-28 -136.5q0 -96 47.5 -177t128.5 -128t176.5 -47t176.5 47t128 128t47 176.5t-47 176.5t-128 128.5t-177 47.5zM580 516l-10 -280h-86l-9 280h105zM527.5 101q-22.5 0 -38 15t-15.5 35q0 10 4 19.5t11.5 16t17.5 10.5
t20 4q15 0 27.5 -6.5t19.5 -18t7 -25.5q0 -20 -15.5 -35t-38 -15z" />
    <glyph glyph-name="uniE62A" unicode="&#xe62a;" 
d="M527.5 674q-96.5 0 -177.5 -47t-128.5 -128.5t-47.5 -177.5q0 -143 99 -246q98 -101 238 -108h16q58 0 112 18t97.5 50.5t76 76t50.5 97.5t18 112q0 96 -47.5 177.5t-128.5 128.5t-177.5 47zM685 195q3 -3 5 -7t2 -8.5t-2 -9t-5 -7.5q-7 -7 -16.5 -7t-15.5 7l-126 125
l-125 -125q-6 -7 -15.5 -7t-16.5 7t-7 16.5t7 15.5l125 126l-125 125q-5 4 -6.5 10t0 12t6 10.5t10.5 6t12 0t10 -6.5l125 -125l126 125q4 5 10 6.5t12 0t10 -6.5q3 -3 5 -7.5t2 -8.5t-2 -8.5t-5 -7.5l-125 -125z" />
    <glyph glyph-name="uniE62B" unicode="&#xe62b;" 
d="M527 321zM174 321q0 72 28 137t75.5 112.5t113 75.5t136.5 28q96 0 177.5 -47t129 -128.5t47.5 -177.5t-47.5 -177.5t-129 -129t-177.5 -47.5t-177 47.5t-128.5 129t-47.5 177.5zM685 195q3 -3 5 -7t2 -8.5t-2 -9t-5 -7.5q-7 -7 -16.5 -7t-15.5 7l-126 125l-125 -125
q-6 -7 -15.5 -7t-16.5 7t-7 16.5t7 15.5l125 126l-125 125q-5 4 -6.5 10t0 12t6 10.5t10.5 6t12 0t10 -6.5l125 -125l126 125q4 5 10 6.5t12 0t10 -6.5q3 -3 5 -7.5t2 -8.5t-2 -8.5t-5 -7.5l-125 -125z" />
    <glyph glyph-name="uniE62C" unicode="&#xe62c;" 
d="M527.5 673q-95.5 0 -176.5 -47.5t-128.5 -128.5t-47.5 -176.5t47.5 -176.5t128.5 -128t176.5 -47t176.5 47t128 128t47 176.5t-47 176.5t-128 128.5t-176.5 47.5zM474 150l-165 165l69 68l96 -95l203 203l69 -69z" />
  </font>
</defs>
</svg>
